<?xml version="1.0" encoding="UTF-8" standalone="no"?>
<!-- Created with Inkscape (http://www.inkscape.org/) -->

<svg
   width="128"
   height="128"
   viewBox="0 0 33.866666 33.866667"
   version="1.1"
   id="svg1"
   xmlns="http://www.w3.org/2000/svg"
   xmlns:svg="http://www.w3.org/2000/svg">
  <defs
     id="defs1" />
  <g
     id="layer1">
    <g
       id="g2"
       transform="translate(-13.764018,11.641667)">
      <path
         d="m 21.166666,-9.5250004 h 13.229167 l 7.948869,7.9157959 V 17.985464 c 0,1.173057 -0.954982,2.122869 -2.128036,2.122869 h -19.05 C 19.993611,20.108333 19.05,19.16472 19.05,17.991666 V -7.4083337 c 0,-1.1730551 0.943611,-2.1166667 2.116666,-2.1166667 z m 0,0"
         fill="#f6f5f4"
         id="path1-4"
         style="stroke-width:0.264583" />
      <path
         d="m 34.395833,-9.5250004 v 5.8208333 c 0,1.1730551 0.95498,2.0959961 2.128035,2.0959961 l 5.820834,-0.00103 z m 0,0"
         fill="#deddda"
         id="path2-5"
         style="stroke-width:0.264583" />
    </g>
    <path
       id="path1"
       style="fill:#dbe2e3;fill-opacity:1;stroke:#374548;stroke-width:0.606535"
       d="m 27.129759,21.047647 c 0,0 -4.565095,5.762219 -10.196426,5.762219 -5.63133,0 -10.1964256,-5.762219 -10.1964256,-5.762219 0,0 4.5650956,-5.762218 10.1964256,-5.762218 5.631331,0 10.196426,5.762218 10.196426,5.762218 z" />
    <circle
       style="fill:#6f8a91;fill-opacity:1;stroke:none;stroke-width:0.713973;stroke-dasharray:none;stroke-opacity:1"
       id="path2"
       cx="16.933332"
       cy="21.047647"
       r="5.2858729" />
    <path
       style="font-weight:bold;font-size:5.07444px;font-family:'JetBrains Mono';-inkscape-font-specification:'JetBrains Mono Bold';letter-spacing:0px;fill:#ffffff;stroke-width:0.606535"
       d="m 13.931803,22.925189 q -0.380583,0 -0.664752,-0.152233 -0.279094,-0.152233 -0.436402,-0.426253 -0.152233,-0.279094 -0.152233,-0.649528 0,-0.218201 0.09134,-0.497295 0.09641,-0.284169 0.258796,-0.573412 l 0.801762,-1.456364 h 0.72057 l -0.953994,1.633969 0.0203,0.01015 q 0.07612,-0.106563 0.223276,-0.167456 0.147158,-0.06089 0.319689,-0.06089 0.309541,0 0.537891,0.142084 0.233424,0.13701 0.360285,0.390732 0.126861,0.253722 0.126861,0.598784 0,0.365359 -0.157307,0.639379 -0.152234,0.268945 -0.436402,0.421179 -0.279094,0.147158 -0.659677,0.147158 z m 0,-0.53789 q 0.284168,0 0.456699,-0.177606 0.172531,-0.18268 0.172531,-0.482071 0,-0.304467 -0.172531,-0.482072 -0.172531,-0.18268 -0.456699,-0.18268 -0.284169,0 -0.4567,0.18268 -0.172531,0.177605 -0.172531,0.482072 0,0.299391 0.172531,0.482071 0.172531,0.177606 0.4567,0.177606 z m 3.46077,0.487146 v -0.735794 h -1.639044 v -0.918473 l 1.370098,-2.050074 h 0.705348 l -1.466514,2.21753 v 0.192829 h 1.030112 V 20.74318 h 0.639379 v 2.131265 z m 2.633636,0.05074 q -0.355211,0 -0.619082,-0.13701 -0.26387,-0.137009 -0.411029,-0.385657 -0.142085,-0.253722 -0.142085,-0.593709 v -0.659678 q 0,-0.339987 0.142085,-0.588635 0.147159,-0.253722 0.411029,-0.390732 0.263871,-0.137009 0.619082,-0.137009 0.350136,0 0.608933,0.137009 0.263871,0.13701 0.405955,0.385658 0.147159,0.243573 0.147159,0.573412 v 0.507444 h -1.72531 v 0.192828 q 0,0.284169 0.147159,0.431328 0.147159,0.142084 0.416104,0.142084 0.197903,0 0.334913,-0.06597 0.142084,-0.07104 0.167457,-0.202977 h 0.62923 q -0.06597,0.360285 -0.375508,0.578486 -0.309541,0.213126 -0.756092,0.213126 z m -0.563263,-1.796351 v 0.09641 l 1.116377,-0.0051 v -0.09642 q 0,-0.289243 -0.142084,-0.446551 -0.142085,-0.157307 -0.41103,-0.157307 -0.279094,0 -0.421178,0.162382 -0.142085,0.157308 -0.142085,0.446551 z"
       id="text1"
       aria-label="64e" />
  </g>
</svg>
